<?xml version="1.0" encoding="UTF-8" standalone="no"?>
<!DOCTYPE svg PUBLIC "-//W3C//DTD SVG 1.1//EN" "http://www.w3.org/Graphics/SVG/1.1/DTD/svg11.dtd">
<svg width="100%" height="100%" viewBox="0 0 36 36" version="1.1" xmlns="http://www.w3.org/2000/svg" xmlns:xlink="http://www.w3.org/1999/xlink" xml:space="preserve" xmlns:serif="http://www.serif.com/" style="fill-rule:evenodd;clip-rule:evenodd;stroke-linejoin:round;stroke-miterlimit:2;">
    <path d="M18.173,0.012C17.95,0.004 17.727,0 17.5,0C17.274,0 17.051,0.004 16.828,0.012C7.473,0.366 0,8.062 0,17.5C0,26.939 7.473,34.635 16.828,34.989C17.051,34.997 17.274,35.001 17.5,35.001C17.727,35.001 17.95,34.997 18.173,34.989C27.527,34.635 35.001,26.939 35.001,17.5C35.001,8.062 27.527,0.366 18.173,0.012ZM31.727,15.909L25.399,15.909C25.037,10.58 22.905,6.328 21.128,3.643C26.78,5.123 31.075,9.967 31.727,15.909ZM17.504,4.049C19.067,6.085 21.76,10.333 22.21,15.909L12.791,15.909C13.241,10.357 15.941,6.093 17.504,4.049ZM22.21,19.091C21.76,24.644 19.063,28.907 17.496,30.952C15.933,28.915 13.241,24.668 12.791,19.091L22.21,19.091ZM13.873,3.643C12.095,6.328 9.963,10.58 9.601,15.909L3.273,15.909C3.926,9.967 8.221,5.123 13.873,3.643ZM3.273,19.091L9.601,19.091C9.963,24.417 12.091,28.669 13.869,31.353C8.217,29.878 3.926,25.033 3.273,19.091ZM21.132,31.353C22.91,28.669 25.037,24.417 25.399,19.091L31.727,19.091C31.075,25.033 26.784,29.878 21.132,31.353Z" style="fill:rgb(53,60,112);fill-rule:nonzero;"/>
</svg>
