<?xml version="1.0" encoding="UTF-8" standalone="no"?><!DOCTYPE svg PUBLIC "-//W3C//DTD SVG 1.1//EN" "http://www.w3.org/Graphics/SVG/1.1/DTD/svg11.dtd"><svg width="100%" height="100%" viewBox="0 0 55 55" version="1.1" xmlns="http://www.w3.org/2000/svg" xmlns:xlink="http://www.w3.org/1999/xlink" xml:space="preserve" xmlns:serif="http://www.serif.com/" style="fill-rule:evenodd;clip-rule:evenodd;stroke-linejoin:round;stroke-miterlimit:2;"><g><path d="M37.793,23.795l-6.871,0l-0,-6.798c-0,-1.865 -1.551,-3.4 -3.436,-3.4c-1.885,0 -3.436,1.535 -3.436,3.4l0,6.798l-6.871,0c-1.885,0 -3.436,1.535 -3.436,3.4c-0,1.864 1.551,3.399 3.436,3.399l6.871,-0l0,6.799c0,1.864 1.551,3.399 3.436,3.399c1.885,-0 3.436,-1.535 3.436,-3.399l-0,-6.799l6.871,-0c1.885,-0 3.436,-1.535 3.436,-3.399c-0,-1.865 -1.551,-3.4 -3.436,-3.4Z" style="fill:#fff;fill-rule:nonzero;"/><path d="M27.486,-0c-15.078,-0 -27.486,12.276 -27.486,27.195c0,14.918 12.408,27.194 27.486,27.194c15.078,0 27.486,-12.276 27.486,-27.194c-0.016,-14.913 -12.414,-27.179 -27.486,-27.195Zm-0,47.591c-11.309,-0 -20.615,-9.208 -20.615,-20.396c0,-11.189 9.306,-20.396 20.615,-20.396c11.309,-0 20.614,9.207 20.614,20.396c-0.012,11.184 -9.31,20.383 -20.614,20.396Z" style="fill:#fff;fill-rule:nonzero;"/></g></svg>