<?xml version="1.0" encoding="UTF-8" standalone="no"?><!DOCTYPE svg PUBLIC "-//W3C//DTD SVG 1.1//EN" "http://www.w3.org/Graphics/SVG/1.1/DTD/svg11.dtd"><svg width="100%" height="100%" viewBox="0 0 73 74" version="1.1" xmlns="http://www.w3.org/2000/svg" xmlns:xlink="http://www.w3.org/1999/xlink" xml:space="preserve" xmlns:serif="http://www.serif.com/" style="fill-rule:evenodd;clip-rule:evenodd;stroke-linecap:round;stroke-linejoin:round;"><g><path d="M68.954,33.055c-0,-3.45 -2.801,-6.25 -6.25,-6.25l-30.163,-0c-3.45,-0 -6.25,2.8 -6.25,6.25l-0,31.117c-0,3.449 2.8,6.25 6.25,6.25l30.163,-0c3.449,-0 6.25,-2.801 6.25,-6.25l-0,-31.117Z" style="fill:none;stroke:#fff;stroke-width:6.64px;"/><path d="M13.164,46.936l-3.282,-0c-3.6,-0 -6.563,-3.03 -6.563,-6.711l-0,-30.196c-0,-3.681 2.963,-6.71 6.563,-6.71l29.536,-0c3.601,-0 6.563,3.029 6.563,6.71l0,3.355" style="fill:none;fill-rule:nonzero;stroke:#fff;stroke-width:6.64px;"/></g></svg>