<?xml version="1.0" encoding="UTF-8" standalone="no"?><!DOCTYPE svg PUBLIC "-//W3C//DTD SVG 1.1//EN" "http://www.w3.org/Graphics/SVG/1.1/DTD/svg11.dtd"><svg width="100%" height="100%" viewBox="0 0 67 25" version="1.1" xmlns="http://www.w3.org/2000/svg" xmlns:xlink="http://www.w3.org/1999/xlink" xml:space="preserve" xmlns:serif="http://www.serif.com/" style="fill-rule:evenodd;clip-rule:evenodd;stroke-linejoin:round;stroke-miterlimit:2;"><path d="M33.23,15.625c-12.912,-0 -24.937,-3.795 -32.168,-10.153c-0.675,-0.593 -1.062,-1.449 -1.062,-2.347c-0,-1.714 1.411,-3.125 3.125,-3.125c0.759,0 1.493,0.277 2.063,0.778c6.123,5.383 16.606,8.597 28.042,8.597c11.437,-0 21.92,-3.214 28.043,-8.597c0.57,-0.501 1.304,-0.778 2.063,-0.778c1.714,0 3.125,1.411 3.125,3.125c-0,0.898 -0.388,1.754 -1.062,2.347c-7.231,6.358 -19.257,10.153 -32.169,10.153Z" style="fill:#1f2937;fill-rule:nonzero;"/><path d="M33.23,25c-1.714,-0 -3.125,-1.411 -3.125,-3.125l0,-9.375c0,-1.715 1.411,-3.125 3.125,-3.125c1.715,-0 3.125,1.41 3.125,3.125l0,9.375c0,1.714 -1.41,3.125 -3.125,3.125Z" style="fill:#1f2937;fill-rule:nonzero;"/><path d="M19.944,23.961c-0.178,0 -0.356,-0.015 -0.532,-0.046c-1.493,-0.256 -2.595,-1.563 -2.595,-3.078c-0,-0.178 0.015,-0.356 0.045,-0.531l1.578,-9.172c0.257,-1.493 1.564,-2.595 3.079,-2.595c1.714,0 3.125,1.411 3.125,3.125c-0,0.177 -0.016,0.354 -0.046,0.529l-1.577,9.172c-0.257,1.492 -1.563,2.594 -3.077,2.596Z" style="fill:#1f2937;fill-rule:nonzero;"/><path d="M7.092,19.706c-1.715,-0.002 -3.124,-1.414 -3.124,-3.128c0,-0.357 0.061,-0.712 0.181,-1.048l3.057,-8.577c0.443,-1.241 1.626,-2.075 2.944,-2.075c1.714,-0 3.125,1.411 3.125,3.125c-0,0.358 -0.062,0.713 -0.182,1.05l-3.058,8.577c-0.442,1.241 -1.625,2.075 -2.943,2.076Z" style="fill:#1f2937;fill-rule:nonzero;"/><path d="M46.516,23.961c-1.514,-0.002 -2.82,-1.104 -3.076,-2.596l-1.578,-9.172c-0.03,-0.175 -0.045,-0.352 -0.045,-0.53c0,-1.714 1.41,-3.124 3.124,-3.124c1.515,0 2.823,1.102 3.08,2.595l1.577,9.172c0.031,0.175 0.046,0.353 0.046,0.531c-0,1.515 -1.102,2.822 -2.595,3.078c-0.176,0.031 -0.354,0.046 -0.533,0.046Z" style="fill:#1f2937;fill-rule:nonzero;"/><path d="M59.369,19.706c-1.319,-0 -2.501,-0.835 -2.944,-2.076l-3.058,-8.577c-0.12,-0.337 -0.181,-0.692 -0.181,-1.05c-0,-1.714 1.41,-3.125 3.125,-3.125c1.318,-0 2.5,0.834 2.943,2.075l3.058,8.577c0.12,0.337 0.181,0.691 0.181,1.048c-0,1.714 -1.41,3.126 -3.124,3.129l-0,-0.001Z" style="fill:#1f2937;fill-rule:nonzero;"/></svg>