<?xml version="1.0" encoding="UTF-8" standalone="no"?><!DOCTYPE svg PUBLIC "-//W3C//DTD SVG 1.1//EN" "http://www.w3.org/Graphics/SVG/1.1/DTD/svg11.dtd"><svg width="100%" height="100%" viewBox="0 0 36 36" version="1.1" xmlns="http://www.w3.org/2000/svg" xmlns:xlink="http://www.w3.org/1999/xlink" xml:space="preserve" xmlns:serif="http://www.serif.com/" style="fill-rule:evenodd;clip-rule:evenodd;stroke-linejoin:round;stroke-miterlimit:2;"><path d="M18.173,0.012c-0.223,-0.008 -0.446,-0.012 -0.673,-0.012c-0.226,-0 -0.449,0.004 -0.672,0.012c-9.355,0.354 -16.828,8.05 -16.828,17.488c-0,9.439 7.473,17.135 16.828,17.489c0.223,0.008 0.446,0.012 0.672,0.012c0.227,-0 0.45,-0.004 0.673,-0.012c9.354,-0.354 16.828,-8.05 16.828,-17.489c-0,-9.438 -7.474,-17.134 -16.828,-17.488Zm13.554,15.897l-6.328,0c-0.362,-5.329 -2.494,-9.581 -4.271,-12.266c5.652,1.48 9.947,6.324 10.599,12.266Zm-14.223,-11.86c1.563,2.036 4.256,6.284 4.706,11.86l-9.419,0c0.45,-5.552 3.15,-9.816 4.713,-11.86Zm4.706,15.042c-0.45,5.553 -3.147,9.816 -4.714,11.861c-1.563,-2.037 -4.255,-6.284 -4.705,-11.861l9.419,0Zm-8.337,-15.448c-1.778,2.685 -3.91,6.937 -4.272,12.266l-6.328,0c0.653,-5.942 4.948,-10.786 10.6,-12.266Zm-10.6,15.448l6.328,0c0.362,5.326 2.49,9.578 4.268,12.262c-5.652,-1.475 -9.943,-6.32 -10.596,-12.262Zm17.859,12.262c1.778,-2.684 3.905,-6.936 4.267,-12.262l6.328,0c-0.652,5.942 -4.943,10.787 -10.595,12.262Z" style="fill:#333;fill-rule:nonzero;"/></svg>
