<?xml version="1.0" encoding="UTF-8" standalone="no"?><!DOCTYPE svg PUBLIC "-//W3C//DTD SVG 1.1//EN" "http://www.w3.org/Graphics/SVG/1.1/DTD/svg11.dtd"><svg width="100%" height="100%" viewBox="0 0 47 47" version="1.1" xmlns="http://www.w3.org/2000/svg" xmlns:xlink="http://www.w3.org/1999/xlink" xml:space="preserve" xmlns:serif="http://www.serif.com/" style="fill-rule:evenodd;clip-rule:evenodd;stroke-linejoin:round;stroke-miterlimit:2;"><circle cx="23.438" cy="23.438" r="14.063" style="fill:#fff;"/><rect x="21.875" y="0" width="3.125" height="6.25" style="fill:#fff;"/><rect x="21.875" y="40.625" width="3.125" height="6.25" style="fill:#fff;"/><rect x="40.625" y="21.875" width="6.25" height="3.125" style="fill:#fff;"/><rect x="0" y="21.875" width="6.25" height="3.125" style="fill:#fff;"/><path d="M36.694,34.486l-2.209,2.21l4.419,4.419l2.21,-2.21l-4.42,-4.419Z" style="fill:#fff;"/><path d="M7.97,5.76l-2.209,2.21l4.419,4.419l2.21,-2.21l-4.42,-4.419Z" style="fill:#fff;"/><path d="M10.179,34.485l-4.419,4.419l2.209,2.21l4.42,-4.419l-2.21,-2.21Z" style="fill:#fff;"/><path d="M38.905,5.76l-4.42,4.42l2.21,2.209l4.419,-4.419l-2.209,-2.21Z" style="fill:#fff;"/></svg>